<?xml version="1.0" standalone="no"?>
<!DOCTYPE svg PUBLIC "-//W3C//DTD SVG 20010904//EN"
 "http://www.w3.org/TR/2001/REC-SVG-20010904/DTD/svg10.dtd">
<svg version="1.0" xmlns="http://www.w3.org/2000/svg"
 width="134.000000pt" height="134.000000pt" viewBox="0 0 134.000000 134.000000"
 preserveAspectRatio="xMidYMid meet">
<metadata>
Created by potrace 1.11, written by Peter Selinger 2001-2013
</metadata>
<g transform="translate(0.000000,134.000000) scale(0.100000,-0.100000)"
fill="#000000" stroke="none">
<path d="M25 1000 c-5 -8 -6 -6 160 -300 76 -135 143 -255 149 -267 20 -43 40
-25 106 97 36 66 67 120 70 120 3 0 33 -55 66 -122 l60 -123 337 -3 c244 -2
337 1 337 9 0 20 -325 589 -336 589 -7 0 -42 -54 -80 -120 -37 -66 -70 -120
-73 -120 -3 0 -33 55 -66 123 l-60 122 -333 0 c-184 0 -335 -2 -337 -5z m401
-165 l74 -152 -69 -122 c-50 -88 -71 -118 -78 -109 -18 23 -293 517 -293 526
0 5 66 9 146 9 l146 0 74 -152z m229 143 c5 -5 -118 -239 -140 -265 -1 -2
-135 264 -135 270 0 6 269 1 275 -5z m470 -273 c80 -143 147 -264 148 -270 1
-6 -53 -10 -144 -11 l-146 -1 -71 143 c-40 80 -72 151 -72 158 0 15 130 249
135 244 2 -2 69 -120 150 -263z m-376 141 c30 -63 53 -118 53 -123 -2 -12
-155 -283 -159 -280 -7 8 -113 229 -113 238 0 14 151 279 159 279 4 0 31 -51
60 -114z m137 -278 c32 -67 59 -127 59 -132 0 -12 -264 -16 -271 -4 -3 4 6 24
19 45 13 21 45 77 71 126 26 48 51 87 55 87 4 0 34 -55 67 -122z"/>
</g>
</svg>
